<?xml version="1.0"?>
<svg xmlns="http://www.w3.org/2000/svg" xmlns:xlink="http://www.w3.org/1999/xlink" xmlns:svgjs="http://svgjs.com/svgjs" version="1.1" width="512" height="512" x="0" y="0" viewBox="0 0 512 512" style="enable-background:new 0 0 512 512" xml:space="preserve" class=""><g><g xmlns="http://www.w3.org/2000/svg"><g><path d="m375.501 267.763c-4.268 0-7.726-3.459-7.726-7.726v-84.012c0-4.267 3.459-7.726 7.726-7.726s7.726 3.459 7.726 7.726v84.012c0 4.266-3.458 7.726-7.726 7.726z" fill="#ffffff" data-original="#655e67" style="" class=""/></g><g><path d="m136.499 267.763c-4.268 0-7.726-3.459-7.726-7.726v-84.012c0-4.267 3.459-7.726 7.726-7.726s7.726 3.459 7.726 7.726v84.012c0 4.266-3.458 7.726-7.726 7.726z" fill="#ffffff" data-original="#655e67" style="" class=""/></g><path d="m383.227 176.025h-254.454v-28.845c0-5.69 4.612-10.302 10.302-10.302h233.851c5.69 0 10.302 4.612 10.302 10.302v28.845z" fill="#ff8000" data-original="#ffe07d" style="" class=""/><path d="m372.926 136.878h-30.906c5.69 0 10.302 4.612 10.302 10.302v28.845h30.905v-28.845c0-5.69-4.612-10.302-10.301-10.302z" fill="#ffd064" data-original="#ffd064" style=""/><path d="m429.586 354.109h-347.172v-76.357l77.317-29.548c2.348-.897 4.841-1.358 7.355-1.358h88.914 88.913c2.514 0 5.007.46 7.355 1.358l77.317 29.548v76.357z" fill="#3485ff" data-original="#dd636e" style="" class=""/><path d="m319.273 354.109c-1.756-17.632-1.819-37.485 1.28-58.953 2.554-17.694 6.874-33.809 12.153-48.309h-76.706-76.706c5.279 14.5 9.599 30.615 12.153 48.309 3.099 21.468 3.036 41.321 1.28 58.953z" fill="#ffffff" data-original="#da3847" style="" class=""/><g><path d="m82.414 329.394v24.715h185.09z" fill="#ffd064" data-original="#ffd064" style=""/></g><path d="m429.586 354.109h-347.172v-45.451l77.317-29.548c2.348-.897 4.841-1.358 7.355-1.358h88.914 88.913c2.514 0 5.007.46 7.355 1.358l77.317 29.548v45.451z" fill="#3485ff" data-original="#dd636e" style="" class=""/><path d="m319.273 354.109c-1.756-17.632-1.819-37.485 1.28-58.953.864-5.985 1.939-11.78 3.175-17.403h-67.728-67.728c1.236 5.624 2.311 11.419 3.175 17.403 3.099 21.468 3.036 41.321 1.28 58.953z" fill="#ff8000" data-original="#da4a54" style="" class=""/><path d="m77.264 424.824h-56.66c-11.379 0-20.604-9.224-20.604-20.603v-150.407c0-11.379 9.225-20.604 20.604-20.604h56.66c11.379 0 20.604 9.225 20.604 20.604v150.406c-.001 11.38-9.225 20.604-20.604 20.604z" fill="#ffffff" data-original="#655e67" style="" class=""/><path d="m77.264 233.21h-30.906c11.379 0 20.604 9.225 20.604 20.604v150.406c0 11.379-9.225 20.604-20.604 20.604h30.905c11.379 0 20.604-9.224 20.604-20.604v-150.406c0-11.379-9.224-20.604-20.603-20.604z" fill="#ffffff" data-original="#544f56" style="" class=""/><path d="m491.396 424.824h-56.66c-11.379 0-20.604-9.225-20.604-20.604v-150.406c0-11.379 9.225-20.604 20.604-20.604h56.66c11.379 0 20.604 9.225 20.604 20.604v150.406c0 11.38-9.225 20.604-20.604 20.604z" fill="#ffffff" data-original="#655e67" style="" class=""/><path d="m491.396 233.21h-30.905c11.379 0 20.604 9.225 20.604 20.604v150.406c0 11.379-9.225 20.604-20.604 20.604h30.905c11.379 0 20.604-9.224 20.604-20.604v-150.406c0-11.379-9.225-20.604-20.604-20.604z" fill="#ffffff" data-original="#544f56" style="" class=""/><path d="m452.968 379.235-100.21 27.699c-2.682.741-5.452 1.117-8.234 1.117h-177.048c-2.782 0-5.552-.376-8.234-1.117l-100.21-27.699c-4.465-1.234-7.557-5.297-7.557-9.929v-44.334c0-6.673 6.248-11.586 12.733-10.011l110.934 26.94c2.388.58 4.836.873 7.293.873h147.129c2.457 0 4.906-.293 7.293-.873l110.934-26.94c6.485-1.575 12.733 3.337 12.733 10.011v44.334c.001 4.632-3.091 8.695-7.556 9.929z" fill="#3485ff" data-original="#dd636e" style="" class=""/><path d="m447.792 314.961-7.71 1.872-11.909 2.892c.907 1.526 1.447 3.308 1.447 5.246v60.717l23.348-6.454c.09-.025.175-.058.264-.085 1.832-.559 3.424-1.594 4.647-2.952.069-.077.133-.159.2-.238.346-.409.66-.843.939-1.301.959-1.574 1.508-3.412 1.508-5.353v-44.333c-.001-6.674-6.249-11.586-12.734-10.011z" fill="#ffffff" data-original="#da3847" style="" class=""/><g><path d="m282.261 145.345h-52.521v-31.908c0-14.503 11.757-26.261 26.261-26.261 14.503 0 26.261 11.757 26.261 26.261v31.908z" fill="#3485ff" data-original="#dd636e" style="" class=""/><path d="m256 87.176c-5.778 0-11.116 1.87-15.453 5.032 6.549 4.776 10.808 12.503 10.808 21.228v31.908h30.905v-31.908c.001-14.503-11.756-26.26-26.26-26.26z" fill="#ff8000" data-original="#da4a54" style="" class=""/><path d="m303.728 206.93h-95.457l10.436-14.878c0-3.295-10.102-20.038-9.467-23.145 4.451-21.749 23.694-38.109 46.759-38.109 23.065 0 42.308 16.36 46.759 38.109.636 3.107-11.734 20.484-11.734 23.779z" fill="#ffffff" data-original="#717ed3" style="" class=""/><path d="m256 130.797c-5.41 0-10.605.913-15.453 2.572 18.773 6.424 32.276 24.207 32.276 45.156v28.404h30.905l-12.703-14.244c0-3.295 12.37-20.672 11.734-23.779-4.451-21.748-23.694-38.109-46.759-38.109z" fill="#41466a" data-original="#5766cb" style="" class=""/><path d="m303.728 178.526c0-3.303-.336-6.528-.975-9.643l-.018-.025c-12.089 2.498-27 4.572-44.107 4.767-19.419.221-36.174-2.041-49.363-4.767l-.034.104c-.629 3.09-.96 6.288-.96 9.563v43.857h95.457z" fill="#dceafc" data-original="#dceafc" style="" class=""/><path d="m319.367 355.087c-.413-3.989-.734-8.1-.958-12.313h-124.819c-.224 4.213-.545 8.324-.958 12.313-2.151 20.766 6.071 39.982 20.241 52.964h86.253c14.17-12.982 22.393-32.198 20.241-52.964z" fill="#ffffff" data-original="#da3847" style="" class=""/><path d="m303.666 176.065c-.006-.123-.021-.243-.028-.366-.04-.691-.088-1.381-.157-2.064-.009-.084-.023-.165-.031-.248-.077-.72-.165-1.438-.274-2.148-.003-.019-.007-.037-.01-.056-.119-.772-.256-1.539-.412-2.299 0-.001 0-.002 0-.002l-.018-.025c-8.692 1.797-18.851 3.369-30.229 4.186.206 1.799.317 3.627.317 5.482v28.404h30.905v-28.404c-.001-.825-.022-1.645-.063-2.46z" fill="#bdd8fc" data-original="#bdd8fc" style="" class=""/><path d="m298.2 294.431c-2.063 14.293-1.985 27.494-.775 39.178 2.53 24.423-16.871 45.589-41.425 45.589-24.554 0-43.955-21.165-41.425-45.589 1.21-11.684 1.288-24.885-.775-39.178-5.087-35.244-20.858-60.982-32.601-76.075-3.62-4.652-.34-11.426 5.555-11.426h138.491c5.895 0 9.175 6.774 5.555 11.426-11.742 15.094-27.514 40.831-32.6 76.075z" fill="#3485ff" data-original="#dd636e" style="" class=""/><g><g><path d="m256.964 338.809c-4.268 0-7.726-3.459-7.726-7.726v-68.311h-8.526c-4.268 0-7.726-3.459-7.726-7.726s3.459-7.726 7.726-7.726h16.253c4.268 0 7.726 3.459 7.726 7.726v76.038c-.001 4.266-3.46 7.725-7.727 7.725z" fill="#ffffff" data-original="#ffffff" style="" class=""/></g></g></g></g></g></svg>
