<svg id="Layer_3" enable-background="new 0 0 64 64" height="512" viewBox="0 0 64 64" width="512" xmlns="http://www.w3.org/2000/svg"><g fill="#a1cdfb"><path d="m34 7c2.761 0 5 2.239 5 5 0-2.761 2.239-5 5-5-2.761 0-5-2.239-5-5 0 2.761-2.239 5-5 5z"/><path d="m52 7c2.761 0 5 2.239 5 5 0-2.761 2.239-5 5-5-2.761 0-5-2.239-5-5 0 2.761-2.239 5-5 5z"/><path d="m46 17c2.761 0 5 2.239 5 5 0-2.761 2.239-5 5-5-2.761 0-5-2.239-5-5 0 2.761-2.239 5-5 5z"/></g><path d="m10 53h-6c-1.105 0-2-.895-2-2v-6.958c0-2.358 1.647-4.395 3.952-4.889l10.048-2.153 8.199-10.658c1.135-1.477 2.893-2.342 4.755-2.342h12.091c1.863 0 3.62.865 4.756 2.342l8.199 10.658 8 4v10c0 1.105-.895 2-2 2h-6" fill="#669e4f"/><path d="m45.801 26.342c-1.135-1.477-2.893-2.342-4.755-2.342h-12.092c-1.863 0-3.62.865-4.756 2.342l-8.198 10.658-10.048 2.153c-2.305.494-3.952 2.531-3.952 4.889v.658c5.014 2.7 11.246 4.3 18 4.3 14.802 0 27.092-7.685 29.546-17.79z" fill="#78b75b"/><path d="m49 38-6.104-8.72c-.562-.802-1.479-1.28-2.458-1.28h-10.876c-.979 0-1.896.478-2.458 1.28l-6.104 8.72z" fill="#c7e2fc"/><path d="m22.73 35.529c1.511.304 3.111.471 4.77.471 6.91 0 12.82-2.835 15.277-6.853-.567-.714-1.42-1.147-2.339-1.147h-10.876c-.979 0-1.896.478-2.458 1.28z" fill="#ebf7fe"/><path d="m2 44.042v2.956l4 .002v-4l-3.878-.002c-.072.339-.122.686-.122 1.044z" fill="#f9d18b"/><path d="m58 49h4v-8l-4-2z" fill="#e47c6e"/><circle cx="17" cy="53" fill="#4d5d7a" r="7"/><circle cx="47" cy="53" fill="#4d5d7a" r="7"/><circle cx="17" cy="53" fill="#8892a0" r="3"/><circle cx="47" cy="53" fill="#8892a0" r="3"/><path d="m1 61h62v2h-62z"/><path d="m17 61c-4.411 0-8-3.589-8-8s3.589-8 8-8 8 3.589 8 8-3.589 8-8 8zm0-14c-3.309 0-6 2.691-6 6s2.691 6 6 6 6-2.691 6-6-2.691-6-6-6z"/><path d="m17 57c-2.206 0-4-1.794-4-4s1.794-4 4-4 4 1.794 4 4-1.794 4-4 4zm0-6c-1.103 0-2 .897-2 2s.897 2 2 2 2-.897 2-2-.897-2-2-2z"/><path d="m47 61c-4.411 0-8-3.589-8-8s3.589-8 8-8 8 3.589 8 8-3.589 8-8 8zm0-14c-3.309 0-6 2.691-6 6s2.691 6 6 6 6-2.691 6-6-2.691-6-6-6z"/><path d="m47 57c-2.206 0-4-1.794-4-4s1.794-4 4-4 4 1.794 4 4-1.794 4-4 4zm0-6c-1.103 0-2 .897-2 2s.897 2 2 2 2-.897 2-2-.897-2-2-2z"/><path d="m24 52h16v2h-16z"/><path d="m60 54h-6v-2h6c.551 0 1-.449 1-1v-9.382l-7.447-3.724c-.135-.068-.253-.165-.345-.285l-8.199-10.658c-.94-1.222-2.422-1.951-3.964-1.951h-12.09c-1.542 0-3.023.729-3.963 1.952l-8.2 10.658c-.145.188-.351.318-.583.368l-10.047 2.153c-1.832.392-3.162 2.037-3.162 3.911v6.958c0 .551.449 1 1 1h6v2h-6c-1.654 0-3-1.346-3-3v-6.958c0-2.811 1.995-5.278 4.743-5.867l9.688-2.076 7.975-10.367c1.316-1.71 3.39-2.732 5.548-2.732h12.091c2.158 0 4.232 1.021 5.548 2.732l8.059 10.477 7.794 3.897c.34.169.554.515.554.894v10c0 1.654-1.346 3-3 3z"/><path d="m62 50h-4c-.552 0-1-.448-1-1v-10h2v9h3z"/><path d="m49 39h-28c-.373 0-.715-.208-.887-.538-.172-.331-.146-.73.068-1.035l6.104-8.72c.747-1.069 1.972-1.707 3.277-1.707h10.876c1.305 0 2.53.638 3.277 1.707l6.104 8.72c.214.305.24.704.068 1.035-.172.33-.514.538-.887.538zm-26.079-2h24.158l-5.003-7.147c-.373-.534-.986-.853-1.638-.853h-10.876c-.652 0-1.265.319-1.638.853z"/><path d="m34 28h2v10h-2z"/><path d="m32 41h4v2h-4z"/><path d="m46 41h4v2h-4z"/><path d="m6 48h-4v-2h3v-2h-3v-2h4c.552 0 1 .448 1 1v4c0 .552-.448 1-1 1z"/><path d="m28.139 24.813-1.617-1.177c1.621-2.229 2.478-4.869 2.478-7.636 0-1.95-.421-3.824-1.25-5.571l1.807-.858c.957 2.017 1.443 4.18 1.443 6.429 0 3.192-.989 6.239-2.861 8.813z"/><path d="m2.444 22.429c-.958-2.017-1.444-4.18-1.444-6.429 0-8.271 6.729-15 15-15 4.064 0 7.87 1.599 10.714 4.502l-1.429 1.399c-2.465-2.515-5.763-3.901-9.285-3.901-7.168 0-13 5.832-13 13 0 1.95.421 3.824 1.25 5.571z"/><path d="m16 31c-4.064 0-7.87-1.599-10.714-4.502l1.429-1.399c2.465 2.515 5.763 3.901 9.285 3.901 2.172 0 4.321-.546 6.214-1.579l.958 1.756c-2.187 1.193-4.667 1.823-7.172 1.823z"/><path d="m7 30h-2v-5c0-.552.448-1 1-1h5v2h-4z"/><path d="m26 8h-5v-2h4v-4h2v5c0 .552-.448 1-1 1z"/><path d="m15 23c-.302 0-.59-.137-.781-.375l-4-5 1.562-1.249 3.024 3.779 5.301-10.602 1.789.895-6 12c-.153.305-.45.511-.789.547-.036.003-.071.005-.106.005z"/><path d="m39 13c-.552 0-1-.448-1-1 0-2.206-1.794-4-4-4-.552 0-1-.448-1-1s.448-1 1-1c2.206 0 4-1.794 4-4 0-.552.448-1 1-1s1 .448 1 1c0 2.206 1.794 4 4 4 .552 0 1 .448 1 1s-.448 1-1 1c-2.206 0-4 1.794-4 4 0 .552-.448 1-1 1zm-1.687-6c.668.444 1.243 1.019 1.687 1.687.444-.668 1.019-1.243 1.687-1.687-.668-.444-1.243-1.019-1.687-1.687-.444.668-1.019 1.243-1.687 1.687z"/><path d="m57 13c-.552 0-1-.448-1-1 0-2.206-1.794-4-4-4-.552 0-1-.448-1-1s.448-1 1-1c2.206 0 4-1.794 4-4 0-.552.448-1 1-1s1 .448 1 1c0 2.206 1.794 4 4 4 .552 0 1 .448 1 1s-.448 1-1 1c-2.206 0-4 1.794-4 4 0 .552-.448 1-1 1zm-1.687-6c.668.444 1.243 1.019 1.687 1.687.444-.668 1.019-1.243 1.687-1.687-.668-.444-1.243-1.019-1.687-1.687-.444.668-1.019 1.243-1.687 1.687z"/><path d="m51 23c-.552 0-1-.448-1-1 0-2.206-1.794-4-4-4-.552 0-1-.448-1-1s.448-1 1-1c2.206 0 4-1.794 4-4 0-.552.448-1 1-1s1 .448 1 1c0 2.206 1.794 4 4 4 .552 0 1 .448 1 1s-.448 1-1 1c-2.206 0-4 1.794-4 4 0 .552-.448 1-1 1zm-1.687-6c.668.444 1.242 1.019 1.687 1.687.444-.668 1.019-1.242 1.687-1.687-.668-.444-1.242-1.019-1.687-1.687-.444.668-1.019 1.243-1.687 1.687z"/></svg>